# 3ds Max Wavefront OBJ Exporter v0.99 - (c)2007 guruware
# File Created: 15.11.2023 04:09:27

mtllib BrazoIzq.mtl

#
# object mesh0130_002
#

v  0.0669 -0.3407 -1.0343
v  2.9476 -1.8946 -0.9998
v  0.2799 -1.5538 -0.7604
v  2.9598 -2.0041 -0.0524
v  0.2678 -1.6532 0.0044
v  0.1663 -1.3773 0.4406
v  0.0182 -0.0972 -0.4703
v  3.0957 -0.6591 -1.4136
v  3.4203 -0.2757 -0.5859
v  3.3980 -0.5658 0.3432
v  0.0324 -0.2473 0.1281
v  3.1139 -1.5599 0.4771
v  2.9577 -1.3022 -0.8963
v  3.0470 -0.7667 -1.0343
v  3.1180 -0.7870 -0.2289
v  3.0003 -1.2961 -0.3202
v  3.5603 -1.3124 -0.9409
v  4.1891 -0.8863 -1.1763
v  3.9903 -0.6734 -0.7361
v  7.4370 -1.1054 -0.6813
v  7.1307 -1.5842 -0.4095
v  3.6231 -0.8438 -0.4034
v  4.1181 -1.3712 -1.0119
v  3.5440 -1.3083 -0.5170
v  3.0754 -0.5537 -0.5413
v  3.6313 -0.6368 -0.7340
v  3.5704 -0.8275 -1.1134
v  7.4065 -1.2170 -1.1763
v  10.0336 -1.4097 -0.3709
v  8.5811 -1.2434 0.5785
v  10.4901 -1.5213 0.5968
v  8.5142 -1.8641 0.6272
v  9.7780 -2.0731 0.6252
v  9.5569 -2.0041 -0.1802
v  9.8287 -2.0954 -0.0260
v  7.5364 -1.4036 0.6110
v  7.0313 -1.7668 -1.1499
v  10.4637 -1.8053 -0.2045
v  10.8795 -3.0144 0.5197
v  10.8146 -2.7750 1.0978
v  10.2345 -2.9657 1.1039
v  10.2750 -3.1462 0.5116
v  7.6317 -2.2192 0.6799
v  8.2870 -2.9150 1.9296
v  8.7069 -2.8541 1.8342
v  8.7678 -2.5539 2.0249
v  8.2870 -2.6513 2.1405
v  10.5915 -2.5924 -0.3060
v  9.9018 -2.4301 -0.0909
v  10.6321 -3.2112 -0.0707
v  9.9423 -2.6472 -2.1115
v  9.3175 -1.8134 -2.1683
v  7.6642 -1.6856 -1.8498
v  7.6561 -2.1056 -1.8376
v  8.9808 -2.0853 -2.0851
v  9.4757 -2.6553 -1.9614
v  10.1472 -3.2964 0.0328
v  10.0519 -3.1422 -1.7869
v  9.6807 -3.2010 -1.7504
# 59 vertices

vn -0.0833 0.1602 -0.9836
vn -0.1571 -0.5941 -0.7889
vn -0.1310 -0.8253 -0.5493
vn -0.1572 -0.5941 -0.7889
vn -0.1135 -0.9619 0.2487
vn -0.1309 -0.8253 -0.5493
vn 0.1453 -0.9700 0.1951
vn 0.0402 -0.9935 0.1065
vn 0.0205 -0.4007 0.9160
vn 0.0402 -0.9935 0.1066
vn 0.0667 0.9889 -0.1327
vn -0.0297 0.6527 -0.7570
vn -0.0834 0.1602 -0.9836
vn 0.2952 0.3960 -0.8695
vn 0.0499 0.9962 -0.0708
vn 0.0281 0.6802 0.7325
vn 0.0602 0.6684 0.7414
vn 0.0206 -0.4007 0.9160
vn -0.0335 -0.3542 0.9346
vn 0.0206 -0.4006 0.9160
vn -0.1134 -0.9619 0.2487
vn 0.4582 -0.4845 0.7452
vn 0.9251 -0.3713 0.0795
vn 0.9885 -0.0579 0.1398
vn 0.9771 -0.1376 0.1625
vn 0.9161 -0.3900 0.0933
vn 0.9077 -0.2109 -0.3627
vn 0.8686 -0.3883 -0.3078
vn 0.8051 -0.5645 -0.1821
vn 0.8384 -0.5339 0.1094
vn 0.8177 -0.5755 0.0123
vn 0.9556 -0.2109 -0.2059
vn 0.9129 -0.3878 -0.1277
vn 0.9932 -0.0746 -0.0894
vn 0.8644 -0.4572 -0.2094
vn 0.9950 -0.0583 0.0810
vn 0.5777 -0.5897 -0.5643
vn -0.0895 -0.8890 -0.4490
vn 0.0293 0.5959 -0.8025
vn 0.1130 0.9822 0.1502
vn -0.0658 0.9946 0.0808
vn -0.0658 0.9945 0.0809
vn 0.1128 0.9506 0.2891
vn -0.4094 0.4189 0.8105
vn 0.1130 0.9822 0.1501
vn 0.2139 0.5431 0.8120
vn -0.1909 0.5171 0.8344
vn -0.1303 -0.8316 -0.5399
vn -0.3196 -0.8939 0.3142
vn 0.0773 -0.7919 0.6058
vn -0.4480 -0.3146 0.8369
vn 0.0772 -0.7919 0.6058
vn 0.6578 -0.0021 0.7532
vn 0.3480 0.1074 0.9313
vn 0.5453 0.7989 0.2537
vn 0.1162 0.9914 -0.0609
vn 0.1163 0.9927 -0.0333
vn -0.0671 0.2811 -0.9573
vn -0.0671 0.2810 -0.9574
vn 0.0024 0.4068 -0.9135
vn -0.1243 -0.7368 -0.6646
vn -0.1244 -0.7368 -0.6646
vn -0.2459 0.2765 -0.9290
vn 0.0884 0.9343 -0.3453
vn -0.0784 0.8173 -0.5708
vn -0.0783 0.8173 -0.5708
vn -0.0659 0.9946 0.0808
vn 0.4081 0.9082 -0.0923
vn 0.0908 0.9053 0.4150
vn 0.4266 0.9023 0.0617
vn 0.4266 0.9024 0.0617
vn 0.0907 0.9053 0.4150
vn 0.5446 0.7062 0.4525
vn 0.0781 0.8532 0.5157
vn 0.1303 -0.2383 0.9624
vn 0.2585 0.4744 0.8415
vn 0.2586 0.4744 0.8415
vn -0.3889 0.1103 0.9146
vn 0.1238 -0.9718 -0.2009
vn -0.2389 -0.9671 -0.0880
vn -0.6378 -0.7702 -0.0058
vn -0.2389 -0.9670 -0.0880
vn -0.2459 -0.7483 -0.6161
vn -0.6994 0.5377 0.4708
vn -0.0818 -0.9557 0.2829
vn -0.2196 -0.9750 0.0338
vn 0.6795 0.6568 -0.3269
vn 0.4245 0.8706 -0.2486
vn 0.6781 0.7185 -0.1545
vn -0.0563 0.6587 -0.7503
vn -0.0670 0.2810 -0.9574
vn -0.1065 -0.6311 -0.7683
vn 0.2754 -0.6157 -0.7383
vn 0.0773 -0.7918 0.6059
vn 0.7536 -0.6486 0.1070
vn 0.3654 -0.4230 -0.8292
vn -0.2460 -0.7483 -0.6161
vn 0.0628 -0.5374 -0.8410
vn 0.1961 -0.9136 -0.3562
vn 0.7234 0.4439 -0.5288
vn 0.8926 0.0399 -0.4490
vn 0.9795 -0.1606 0.1217
vn 0.6442 0.7064 0.2934
vn 0.8630 -0.4251 0.2729
vn -0.0165 0.4323 0.9016
vn -0.3890 0.1103 0.9146
vn -0.0203 -0.0624 0.9978
vn -0.1682 0.3675 0.9147
vn -0.1111 0.2626 0.9585
vn -0.1277 0.4173 0.8998
vn -0.6301 -0.6099 0.4806
vn -0.5533 -0.8040 -0.2177
vn -0.1723 -0.9325 0.3175
vn 0.4898 -0.7861 -0.3769
vn -0.5534 -0.8040 -0.2177
vn -0.6378 -0.7702 -0.0059
vn 0.4986 -0.7970 -0.3409
vn 0.6118 -0.1770 0.7710
vn -0.0659 0.9945 0.0808
vn -0.4093 0.4189 0.8105
vn -0.7894 0.4094 0.4575
vn -0.4934 -0.5061 0.7074
vn -0.9107 -0.0721 0.4067
vn -0.1292 -0.9914 0.0223
vn 0.2015 -0.9612 -0.1885
vn -0.1938 -0.9407 0.2785
vn 0.5643 -0.7990 0.2079
vn 0.5427 -0.7991 -0.2586
vn 0.2840 -0.9517 0.1166
vn 0.5427 -0.7991 -0.2585
vn 0.6224 -0.5535 -0.5534
vn -0.3265 -0.8371 -0.4389
vn -0.3386 -0.7506 0.5674
vn 0.8239 -0.4133 0.3877
vn 0.8035 -0.1909 0.5638
vn 0.6534 -0.7566 -0.0269
vn 0.6809 -0.6714 -0.2926
vn 0.8229 -0.4404 0.3591
vn 0.6808 -0.6714 -0.2927
vn 0.7126 0.7015 -0.0096
vn 0.8228 -0.4405 0.3591
vn 0.2466 -0.1766 0.9529
vn 0.0955 0.3943 0.9140
vn -0.4456 0.5550 0.7024
vn -0.3980 -0.0380 0.9166
vn -0.8564 0.2337 0.4605
vn -0.4296 -0.7298 0.5318
vn -0.4307 -0.4874 0.7596
vn 0.8036 -0.1909 0.5638
vn -0.3454 -0.0422 0.9375
vn 0.6588 0.7508 -0.0484
vn 0.2483 0.9359 0.2498
vn 0.2342 0.8935 0.3831
vn 0.6587 0.7508 -0.0484
vn 0.5341 -0.1916 -0.8234
vn -0.1169 -0.9500 -0.2895
vn 0.6716 0.2912 -0.6813
vn 0.2680 0.8435 0.4655
vn 0.2446 -0.3745 0.8944
vn 0.3097 0.3255 0.8934
vn 0.3580 -0.0566 0.9320
vn 0.2997 0.3382 0.8921
vn 0.8187 0.4322 0.3781
vn 0.2996 0.3382 0.8921
vn 0.8851 0.1736 0.4318
vn 0.8188 0.4320 0.3781
vn 0.9590 -0.2795 0.0477
vn 0.6225 -0.1037 -0.7757
vn 0.8762 0.4511 0.1696
vn 0.9276 0.1720 -0.3316
vn 0.2476 0.4479 -0.8591
vn 0.1712 0.3512 -0.9205
vn 0.4246 0.8706 -0.2486
vn 0.4081 0.9083 -0.0923
vn -0.4790 0.3509 -0.8046
vn -0.3895 -0.0365 -0.9203
vn -0.5830 -0.2054 -0.7861
vn 0.1097 -0.8485 0.5176
vn -0.2858 -0.9047 0.3158
vn -0.2707 -0.9562 0.1116
vn -0.3173 -0.8812 -0.3504
vn -0.2858 -0.9048 0.3158
vn -0.8326 -0.5323 -0.1532
vn -0.2561 -0.9662 0.0305
vn -0.8325 -0.5324 -0.1532
vn -0.8761 -0.4127 0.2492
vn -0.4753 -0.7701 0.4255
vn -0.6986 -0.2814 0.6579
vn -0.0181 0.2577 0.9661
vn -0.5361 -0.0314 0.8436
vn 0.2656 0.2724 0.9248
vn -0.5368 -0.8379 0.0990
vn 0.2569 -0.7687 -0.5857
vn 0.8454 -0.4352 -0.3097
vn 0.2570 -0.7687 -0.5857
vn 0.6225 -0.1038 -0.7757
vn -0.7008 -0.5475 -0.4573
vn 0.4722 -0.3189 -0.8218
vn -0.7008 -0.5474 -0.4573
vn 0.0162 0.1140 -0.9934
vn -0.1541 -0.3727 -0.9151
vn -0.1500 -0.5672 -0.8098
vn -0.4791 0.3508 -0.8046
vn 0.1711 0.3512 -0.9205
vn -0.0790 0.7029 -0.7069
vn -0.4791 0.3509 -0.8046
vn -0.5443 0.1559 -0.8243
vn -0.5442 0.1559 -0.8243
vn -0.0909 -0.2427 -0.9658
vn 0.0674 -0.7975 -0.5995
vn -0.1541 -0.3726 -0.9151
vn -0.5325 -0.8411 0.0944
vn -0.4155 -0.8178 -0.3982
# 213 vertex normals

vt 0.9375 1.8555 0.0000
vt 0.4648 1.2930 0.0000
# 2 texture coords

o mesh0130_002
g mesh0130_002
usemtl 01___Default
s off
f 1/1/1 2/1/2 3/1/3 
f 2/1/4 4/1/5 3/1/6 
f 3/1/6 4/1/7 5/1/8 
f 4/1/5 6/1/9 5/1/10 
f 7/1/11 8/1/12 1/1/13 
f 1/1/13 8/1/14 2/1/2 
f 8/1/12 7/1/11 9/1/15 
f 9/1/15 7/1/11 10/1/16 
f 7/1/11 11/1/17 10/1/16 
f 11/1/17 6/1/18 10/1/16 
f 10/1/16 6/1/9 12/1/19 
f 6/1/20 4/1/21 12/1/22 
f 13/1/23 2/1/24 14/1/25 
f 2/1/24 8/1/26 14/1/25 
f 15/1/27 10/1/28 16/1/29 
f 10/1/28 12/1/30 16/1/31 
f 12/1/32 4/1/33 16/1/31 
f 16/1/31 4/1/34 13/1/35 
f 4/1/34 2/1/24 13/1/36 
f 16/2/31 13/2/37 17/2/38 
f 18/2/39 19/2/40 20/2/41 
f 20/2/42 19/2/43 21/2/44 
f 19/2/45 22/2/46 21/2/47 
f 23/2/48 21/2/49 24/2/50 
f 21/2/51 22/2/46 24/2/52 
f 24/2/50 22/2/46 15/2/53 
f 15/2/54 22/2/46 25/2/55 
f 25/2/55 22/2/46 26/2/56 
f 22/2/46 19/2/40 26/2/56 
f 26/2/56 19/2/57 27/2/58 
f 19/2/45 18/2/39 27/2/58 
f 27/2/59 18/2/60 23/2/61 
f 23/2/62 18/2/60 28/2/63 
f 18/2/64 20/2/41 28/2/65 
f 28/2/66 20/2/67 29/2/68 
f 20/2/42 30/2/69 29/2/70 
f 29/2/71 30/2/72 31/2/73 
f 30/2/74 32/2/75 31/2/76 
f 31/2/77 32/2/75 33/2/78 
f 32/2/79 34/2/80 33/2/81 
f 33/2/81 34/2/82 35/2/83 
f 20/2/41 36/2/84 30/2/72 
f 21/2/49 37/2/85 34/2/86 
f 38/2/87 29/2/88 31/2/89 
f 26/2/56 27/2/59 14/2/90 
f 14/2/90 27/2/91 13/2/92 
f 13/2/93 27/2/91 17/2/38 
f 27/2/91 23/2/61 17/2/38 
f 23/2/48 24/2/94 17/2/38 
f 17/2/38 24/2/50 16/2/31 
f 24/2/52 15/2/53 16/2/95 
f 34/2/80 38/2/96 35/2/97 
f 35/2/97 38/2/98 39/2/99 
f 38/2/100 31/2/89 39/2/101 
f 39/2/102 31/2/103 40/2/104 
f 31/2/105 33/2/106 40/2/107 
f 40/2/108 33/2/109 41/2/110 
f 33/2/111 42/2/112 41/2/113 
f 41/2/113 42/2/112 39/2/99 
f 39/2/114 42/2/115 35/2/97 
f 42/2/112 33/2/116 35/2/97 
f 39/2/117 40/2/118 41/2/113 
f 20/2/119 21/2/120 36/2/121 
f 36/2/121 21/2/122 43/2/123 
f 21/2/124 34/2/80 43/2/125 
f 34/2/126 32/2/127 43/2/125 
f 43/2/125 32/2/128 44/2/129 
f 32/2/130 45/2/131 44/2/132 
f 44/2/133 45/2/134 46/2/135 
f 45/2/136 32/2/137 46/2/138 
f 32/2/139 30/2/140 46/2/141 
f 46/2/142 30/2/69 47/2/143 
f 30/2/72 36/2/121 47/2/144 
f 47/2/145 36/2/146 44/2/147 
f 36/2/121 43/2/123 44/2/148 
f 46/2/149 47/2/150 44/2/133 
f 31/2/89 38/2/151 30/2/152 
f 30/2/153 38/2/154 29/2/71 
f 38/2/155 34/2/156 29/2/157 
f 29/2/158 34/2/159 48/2/160 
f 34/2/161 49/2/162 48/2/163 
f 49/2/164 50/2/165 48/2/166 
f 50/2/167 51/2/168 48/2/169 
f 51/2/170 52/2/171 48/2/169 
f 48/2/169 52/2/172 29/2/173 
f 52/2/171 28/2/65 29/2/174 
f 53/2/175 54/2/176 37/2/177 
f 54/2/178 55/2/179 37/2/85 
f 37/2/180 55/2/181 34/2/80 
f 55/2/182 56/2/183 34/2/184 
f 34/2/184 56/2/185 49/2/186 
f 56/2/185 57/2/187 49/2/188 
f 49/2/189 57/2/190 50/2/191 
f 57/2/192 58/2/193 50/2/194 
f 50/2/167 58/2/195 51/2/196 
f 58/2/195 56/2/197 51/2/198 
f 51/2/198 56/2/199 52/2/200 
f 56/2/201 55/2/202 52/2/172 
f 55/2/202 54/2/176 52/2/172 
f 54/2/176 53/2/203 52/2/172 
f 52/2/204 53/2/203 28/2/205 
f 53/2/206 37/2/207 28/2/205 
f 28/2/205 37/2/208 23/2/209 
f 37/2/85 21/2/49 23/2/48 
f 58/2/195 59/2/210 56/2/211 
f 56/2/183 59/2/212 57/2/192 
f 59/2/213 58/2/193 57/2/192 
# 107 faces

