# 3ds Max Wavefront OBJ Exporter v0.99 - (c)2007 guruware
# File Created: 15.11.2023 23:04:43

mtllib Estrella.mtl

#
# object mmGroup001
#

v  9.1594 -0.8759 -0.3667
v  6.8646 0.4439 -1.3115
v  12.1160 1.0248 0.3161
v  9.0379 -4.4087 0.2026
v  6.3175 -2.1687 -0.4310
v  2.9192 -3.1591 0.1081
v  4.2092 0.1351 -0.4431
v  2.2156 3.0467 0.1633
v  5.7483 2.8519 -0.3863
v  7.8995 5.6325 0.2919
v  8.8076 2.2270 -0.3391
v  12.1146 1.0240 0.3922
v  9.1366 -0.8900 0.9286
v  9.0366 -4.4095 0.2786
v  6.2946 -2.1828 0.8643
v  2.9178 -3.1599 0.1841
v  3.9909 -0.3082 0.1961
v  3.9961 -0.2979 0.1064
v  3.8380 0.5968 0.1130
v  3.8306 0.6043 0.2032
v  2.2143 3.0459 0.2393
v  7.8982 5.6316 0.3679
v  8.7848 2.2129 0.9562
v  6.8093 0.4098 1.8203
v  4.1864 0.1210 0.8522
v  5.7254 2.8377 0.9090
v  6.0833 -0.0617 0.2358
v  6.0839 -0.0528 0.1550
v  4.0084 -0.2693 0.0206
v  6.0831 -0.0285 0.0774
v  4.0272 -0.2236 -0.0580
v  6.0807 0.0104 0.0061
v  4.0519 -0.1627 -0.1262
v  6.0769 0.0624 -0.0562
v  4.0813 -0.0889 -0.1814
v  6.0718 0.1255 -0.1072
v  4.1144 -0.0054 -0.2215
v  6.0656 0.1973 -0.1449
v  4.1498 0.0847 -0.2450
v  6.0586 0.2750 -0.1678
v  4.1352 0.1729 -0.2532
v  4.1663 0.1270 -0.2478
v  6.0432 0.4360 -0.1663
v  4.0778 0.2571 -0.2456
v  6.0354 0.5132 -0.1420
v  4.0220 0.3383 -0.2206
v  6.0279 0.5842 -0.1030
v  3.9700 0.4132 -0.1790
v  6.0210 0.6461 -0.0509
v  3.9240 0.4789 -0.1225
v  6.0150 0.6968 0.0124
v  3.8856 0.5328 -0.0531
v  6.0101 0.7341 0.0844
v  3.8566 0.5726 0.0264
v  6.0064 0.7568 0.1624
v  6.0042 0.7638 0.2434
v  3.8348 0.5948 0.2935
v  6.0036 0.7550 0.3242
v  3.8503 0.5688 0.3801
v  6.0044 0.7307 0.4017
v  3.8766 0.5272 0.4597
v  6.0068 0.6918 0.4730
v  3.9124 0.4718 0.5293
v  6.0106 0.6397 0.5354
v  3.9565 0.4049 0.5859
v  6.0157 0.5766 0.5864
v  4.0070 0.3291 0.6276
v  6.0219 0.5049 0.6240
v  4.0619 0.2473 0.6528
v  6.0289 0.4272 0.6469
v  4.1190 0.1630 0.6606
v  6.0364 0.3466 0.6541
v  4.1340 0.0749 0.6510
v  4.1503 0.1171 0.6553
v  6.0521 0.1890 0.6211
v  4.0995 -0.0146 0.6243
v  6.0596 0.1180 0.5821
v  4.0679 -0.0972 0.5813
v  6.0665 0.0560 0.5300
v  4.0404 -0.1697 0.5235
v  6.0725 0.0054 0.4667
v  4.0182 -0.2292 0.4532
v  6.0775 -0.0320 0.3947
v  4.0022 -0.2731 0.3730
v  6.0811 -0.0546 0.3167
v  3.9929 -0.2998 0.2862
v  6.0511 0.3556 -0.1750
v  6.0443 0.2661 0.6454
# 88 vertices

vn 0.5732 -0.3155 -0.7563
vn 0.0177 0.0109 -0.9998
vn 0.3689 0.2730 -0.8885
vn 0.3753 -0.2448 -0.8940
vn -0.1214 -0.6241 -0.7719
vn -0.1151 -0.4107 -0.9045
vn -0.3739 -0.0252 -0.9271
vn -0.3901 0.0380 -0.9200
vn -0.2570 0.6026 -0.7555
vn 0.0747 0.2936 -0.9530
vn 0.4943 0.4406 -0.7494
vn 0.3872 -0.1874 0.9028
vn 0.5519 -0.3221 0.7692
vn -0.0601 -0.4480 0.8920
vn -0.1371 -0.6430 0.7535
vn -0.4160 -0.1228 0.9010
vn -0.6994 0.7147 -0.0046
vn -0.6120 0.7852 0.0944
vn -0.4191 -0.9043 0.0815
vn -0.5157 -0.8566 -0.0184
vn -0.2376 0.3708 0.8978
vn 0.0803 0.4598 0.8844
vn 0.4596 0.4324 0.7758
vn -0.0177 -0.0109 0.9998
vn -0.4063 -0.0589 0.9119
vn -0.2787 0.5744 0.7697
vn -0.6637 0.7480 -0.0036
vn -0.1211 0.9638 0.2377
vn -0.5990 0.7715 0.2144
vn -0.1397 0.8959 0.4217
vn -0.5729 0.7434 0.3453
vn -0.1120 0.7990 0.5909
vn -0.5262 0.6930 0.4928
vn -0.2772 0.6380 0.7184
vn -0.4451 0.6056 0.6597
vn -0.0896 0.5123 0.8541
vn -0.8089 0.4814 0.3376
vn -0.0973 0.3338 0.9376
vn -0.1243 0.2623 0.9570
vn -0.0573 0.1470 0.9875
vn -0.0813 -0.0564 0.9951
vn -0.1519 0.0667 0.9861
vn -0.0266 -0.1735 0.9845
vn -0.6906 -0.5781 0.4346
vn -0.0299 -0.3632 0.9312
vn -0.2093 -0.5282 0.8229
vn 0.0108 -0.5354 0.8445
vn -0.3044 -0.6972 0.6490
vn -0.1443 -0.6922 0.7071
vn -0.3607 -0.7977 0.4833
vn 0.0427 -0.8163 0.5760
vn -0.3930 -0.8561 0.3357
vn 0.0343 -0.9136 0.4051
vn -0.4107 -0.8888 0.2035
vn 0.0644 -0.9734 0.2199
vn -0.4956 -0.8683 -0.0182
vn -0.4140 -0.9028 -0.1162
vn 0.0725 -0.9684 -0.2386
vn -0.3996 -0.8851 -0.2384
vn 0.0490 -0.9046 -0.4234
vn -0.3750 -0.8496 -0.3708
vn 0.0633 -0.8036 -0.5918
vn -0.3344 -0.7871 -0.5183
vn -0.1190 -0.6766 -0.7267
vn -0.2679 -0.6801 -0.6824
vn 0.0408 -0.5169 -0.8551
vn -0.6455 -0.6495 -0.4019
vn 0.0032 -0.3428 -0.9394
vn -0.0393 -0.2522 -0.9669
vn 0.0083 -0.1520 -0.9884
vn -0.0577 -0.0860 -0.9946
vn -0.8625 -0.0610 -0.5023
vn -0.0697 0.2355 -0.9694
vn -0.1167 0.0883 -0.9892
vn -0.0643 0.3542 -0.9330
vn -0.7991 0.4895 -0.3491
vn -0.0596 0.5308 -0.8454
vn -0.4349 0.6194 -0.6536
vn -0.2519 0.6536 -0.7137
vn -0.5170 0.7014 -0.4906
vn -0.0914 0.8117 -0.5769
vn -0.5656 0.7484 -0.3463
vn -0.1251 0.9050 -0.4067
vn -0.5942 0.7743 -0.2174
vn -0.1130 0.9688 -0.2207
vn -0.6099 0.7863 -0.0986
vn -0.9417 -0.0931 0.3232
vn -0.0273 0.2023 -0.9789
# 88 vertex normals

vt 0.2259 0.1344 0.0000
# 1 texture coords

o mmGroup001
g mmGroup001
usemtl Varita_default
s 1
f 1/1/1 2/1/2 3/1/3 
f 2/1/2 1/1/1 4/1/4 
f 2/1/2 4/1/4 5/1/5 
f 6/1/6 2/1/2 5/1/5 
f 6/1/6 7/1/7 2/1/2 
f 7/1/7 8/1/8 2/1/2 
f 2/1/2 8/1/8 9/1/9 
f 2/1/2 9/1/9 10/1/10 
f 2/1/2 10/1/10 11/1/11 
f 2/1/2 11/1/11 3/1/3 
f 1/1/1 12/1/12 13/1/13 
f 13/1/13 4/1/4 1/1/1 
f 14/1/14 5/1/5 4/1/4 
f 15/1/15 6/1/6 5/1/5 
f 16/1/16 17/1/17 18/1/18 
f 8/1/8 19/1/19 20/1/20 
f 21/1/21 9/1/9 8/1/8 
f 9/1/9 22/1/22 10/1/10 
f 22/1/22 11/1/11 10/1/10 
f 23/1/23 3/1/3 11/1/11 
f 24/1/24 13/1/13 12/1/12 
f 13/1/13 24/1/24 14/1/14 
f 14/1/14 24/1/24 15/1/15 
f 16/1/16 15/1/15 24/1/24 
f 16/1/16 24/1/24 25/1/25 
f 25/1/25 24/1/24 21/1/21 
f 21/1/21 24/1/24 26/1/26 
f 26/1/26 24/1/24 22/1/22 
f 22/1/22 24/1/24 23/1/23 
f 23/1/23 24/1/24 12/1/12 
f 27/1/27 18/1/18 17/1/17 
f 28/1/28 29/1/29 18/1/18 
f 30/1/30 31/1/31 29/1/29 
f 32/1/32 33/1/33 31/1/31 
f 34/1/34 35/1/35 33/1/33 
f 36/1/36 37/1/37 35/1/35 
f 38/1/38 39/1/39 37/1/37 
f 40/1/40 41/1/41 42/1/42 
f 41/1/41 43/1/43 44/1/44 
f 44/1/44 45/1/45 46/1/46 
f 46/1/46 47/1/47 48/1/48 
f 48/1/48 49/1/49 50/1/50 
f 50/1/50 51/1/51 52/1/52 
f 52/1/52 53/1/53 54/1/54 
f 54/1/54 55/1/55 19/1/19 
f 19/1/19 56/1/56 20/1/20 
f 56/1/56 57/1/57 20/1/20 
f 58/1/58 59/1/59 57/1/57 
f 60/1/60 61/1/61 59/1/59 
f 62/1/62 63/1/63 61/1/61 
f 64/1/64 65/1/65 63/1/63 
f 66/1/66 67/1/67 65/1/65 
f 68/1/68 69/1/69 67/1/67 
f 70/1/70 71/1/71 69/1/69 
f 72/1/72 73/1/73 74/1/74 
f 73/1/73 75/1/75 76/1/76 
f 76/1/76 77/1/77 78/1/78 
f 78/1/78 79/1/79 80/1/80 
f 80/1/80 81/1/81 82/1/82 
f 82/1/82 83/1/83 84/1/84 
f 84/1/84 85/1/85 86/1/86 
f 86/1/86 27/1/27 17/1/17 
f 87/1/87 27/1/27 72/1/72 
f 1/1/1 3/1/3 12/1/12 
f 13/1/13 14/1/14 4/1/4 
f 14/1/14 15/1/15 5/1/5 
f 15/1/15 16/1/16 6/1/6 
f 7/1/7 6/1/6 16/1/16 
f 25/1/25 74/1/74 73/1/73 
f 25/1/25 73/1/73 76/1/76 
f 39/1/39 42/1/42 7/1/7 
f 37/1/37 39/1/39 7/1/7 
f 16/1/16 25/1/25 76/1/76 
f 16/1/16 76/1/76 78/1/78 
f 37/1/37 7/1/7 16/1/16 
f 35/1/35 37/1/37 16/1/16 
f 16/1/16 78/1/78 80/1/80 
f 16/1/16 80/1/80 82/1/82 
f 33/1/33 35/1/35 16/1/16 
f 31/1/31 33/1/33 16/1/16 
f 16/1/16 82/1/82 84/1/84 
f 16/1/16 84/1/84 86/1/86 
f 29/1/29 31/1/31 16/1/16 
f 18/1/18 29/1/29 16/1/16 
f 16/1/16 86/1/86 17/1/17 
f 71/1/71 74/1/74 25/1/25 
f 25/1/25 21/1/21 8/1/8 
f 7/1/7 42/1/42 41/1/41 
f 7/1/7 41/1/41 44/1/44 
f 69/1/69 71/1/71 25/1/25 
f 67/1/67 69/1/69 25/1/25 
f 8/1/8 7/1/7 44/1/44 
f 8/1/8 44/1/44 46/1/46 
f 67/1/67 25/1/25 8/1/8 
f 65/1/65 67/1/67 8/1/8 
f 8/1/8 46/1/46 48/1/48 
f 8/1/8 48/1/48 50/1/50 
f 63/1/63 65/1/65 8/1/8 
f 61/1/61 63/1/63 8/1/8 
f 8/1/8 50/1/50 52/1/52 
f 8/1/8 52/1/52 54/1/54 
f 59/1/59 61/1/61 8/1/8 
f 57/1/57 59/1/59 8/1/8 
f 8/1/8 54/1/54 19/1/19 
f 20/1/20 57/1/57 8/1/8 
f 21/1/21 26/1/26 9/1/9 
f 9/1/9 26/1/26 22/1/22 
f 22/1/22 23/1/23 11/1/11 
f 23/1/23 12/1/12 3/1/3 
f 27/1/27 28/1/28 18/1/18 
f 28/1/28 30/1/30 29/1/29 
f 30/1/30 32/1/32 31/1/31 
f 32/1/32 34/1/34 33/1/33 
f 34/1/34 36/1/36 35/1/35 
f 36/1/36 38/1/38 37/1/37 
f 38/1/38 40/1/40 39/1/39 
f 42/1/42 39/1/39 40/1/40 
f 40/1/40 87/1/87 41/1/41 
f 41/1/41 87/1/87 43/1/43 
f 44/1/44 43/1/43 45/1/45 
f 46/1/46 45/1/45 47/1/47 
f 48/1/48 47/1/47 49/1/49 
f 50/1/50 49/1/49 51/1/51 
f 52/1/52 51/1/51 53/1/53 
f 54/1/54 53/1/53 55/1/55 
f 19/1/19 55/1/55 56/1/56 
f 56/1/56 58/1/58 57/1/57 
f 58/1/58 60/1/60 59/1/59 
f 60/1/60 62/1/62 61/1/61 
f 62/1/62 64/1/64 63/1/63 
f 64/1/64 66/1/66 65/1/65 
f 66/1/66 68/1/68 67/1/67 
f 68/1/68 70/1/70 69/1/69 
f 70/1/70 72/1/72 71/1/71 
f 74/1/74 71/1/71 72/1/72 
f 72/1/72 88/1/88 73/1/73 
f 73/1/73 88/1/88 75/1/75 
f 76/1/76 75/1/75 77/1/77 
f 78/1/78 77/1/77 79/1/79 
f 80/1/80 79/1/79 81/1/81 
f 82/1/82 81/1/81 83/1/83 
f 84/1/84 83/1/83 85/1/85 
f 86/1/86 85/1/85 27/1/27 
f 72/1/72 70/1/70 68/1/68 
f 68/1/68 66/1/66 64/1/64 
f 64/1/64 62/1/62 60/1/60 
f 60/1/60 58/1/58 56/1/56 
f 56/1/56 55/1/55 53/1/53 
f 53/1/53 51/1/51 49/1/49 
f 49/1/49 47/1/47 45/1/45 
f 45/1/45 43/1/43 87/1/87 
f 87/1/87 40/1/40 38/1/38 
f 38/1/38 36/1/36 34/1/34 
f 34/1/34 32/1/32 30/1/30 
f 30/1/30 28/1/28 27/1/27 
f 27/1/27 85/1/85 83/1/83 
f 83/1/83 81/1/81 79/1/79 
f 79/1/79 77/1/77 75/1/75 
f 75/1/75 88/1/88 72/1/72 
f 72/1/72 68/1/68 64/1/64 
f 64/1/64 60/1/60 56/1/56 
f 56/1/56 53/1/53 49/1/49 
f 49/1/49 45/1/45 87/1/87 
f 87/1/87 38/1/38 34/1/34 
f 34/1/34 30/1/30 27/1/27 
f 27/1/27 83/1/83 79/1/79 
f 79/1/79 75/1/75 72/1/72 
f 72/1/72 64/1/64 56/1/56 
f 56/1/56 49/1/49 87/1/87 
f 87/1/87 34/1/34 27/1/27 
f 27/1/27 79/1/79 72/1/72 
f 72/1/72 56/1/56 87/1/87 
# 172 faces

