# Blender 3.6.5
# www.blender.org
mtllib PaletaIzq.mtl
g 3D_Arrows_by_Peter_Iliev_obj_3D_Arrows_by_Peter_Iliev_obj
v 6.378958 -4.058076 -8.932970
v 6.378958 4.057329 -8.932970
v 6.378958 4.287329 8.806391
v 6.378958 -4.288077 8.806391
v -71.389328 -4.058077 8.778021
v -71.368088 4.287329 8.548758
v 2.421936 -4.288077 -8.885668
v 2.443180 4.057329 -9.114931
v 0.806410 4.287329 8.548758
v 0.785166 -4.058077 8.778021
v 6.378958 -4.084565 -16.004984
v 6.608957 4.315331 -15.941721
v 6.378956 4.085128 16.108643
v 6.608957 -4.314757 16.045380
v 31.716845 -4.302680 -0.253545
v 31.716845 4.302656 -0.253546
v 6.839483 -4.087182 -16.474842
v 6.839483 4.087876 -16.474842
v 6.839481 4.087877 16.578506
v 6.839483 -4.087182 16.578506
v 6.572330 -4.086142 -16.329903
v 6.737621 4.316433 -16.157909
v 6.572329 4.086784 16.433556
v 6.737621 -4.315806 16.261566
v 7.144939 -4.316844 -16.232521
v 7.217289 4.088555 -16.459824
v 7.144938 4.317520 16.336182
v 7.217287 -4.087829 16.563484
v 6.608957 -4.288209 -8.854185
v 6.378958 -4.288077 -8.702723
v 6.378958 4.287328 -8.702723
v 6.608957 4.287469 -8.854185
v 6.378958 4.057328 9.036638
v 6.608957 4.287467 8.957853
v 6.608957 -4.288210 8.957853
v 6.378958 -4.058076 9.036638
v -71.368088 -4.288077 8.548758
v -71.389328 4.057328 8.778021
v -69.731316 4.057329 -9.114931
v -69.752556 -4.288077 -8.885668
v -69.752556 4.287328 -8.885668
v -69.731316 -4.058077 -9.114931
v 2.443180 -4.058077 -9.114931
v 2.421936 4.287328 -8.885668
v 0.785166 4.057328 8.778021
v 0.806410 -4.288077 8.548758
v 6.608957 -4.314757 -15.941721
v 6.378958 4.085129 -16.004984
v 6.608955 4.315332 16.045380
v 6.378958 -4.084564 16.108643
v 32.415512 -4.073306 -0.073557
v 32.415512 -4.073306 0.177222
v 31.716845 -4.302680 0.357210
v 31.716845 4.302656 0.357210
v 32.415512 4.073313 0.177221
v 32.415512 4.073313 -0.073557
v 6.893560 -4.316413 -16.242512
v 6.893560 4.317070 -16.242512
v 6.893562 4.317070 16.346176
v 6.893562 -4.316413 16.346176
v 6.737621 -4.315806 -16.157909
v 6.572330 4.086785 -16.329903
v 6.737621 4.316432 16.261566
v 6.572329 -4.086141 16.433556
v 7.217289 -4.087829 -16.459824
v 7.144939 4.317521 -16.232521
v 7.217287 4.088554 16.563484
v 7.144938 -4.316843 16.336182
vn 0.0090 -0.9997 -0.0235
vn -0.3875 -0.8534 0.3485
vn -0.6323 -0.7555 -0.1714
vn -0.2326 -0.8616 -0.4512
vn -0.0228 -0.0153 0.9996
vn -0.3877 0.3544 0.8509
vn -0.6908 -0.1221 0.7126
vn -0.2765 -0.3865 0.8799
vn 0.1126 0.0068 -0.9936
vn -0.3489 -0.2732 -0.8965
vn -0.5403 0.1169 -0.8333
vn -0.2010 0.4491 -0.8706
vn 0.0462 -0.0000 -0.9989
vn 0.0089 0.9996 -0.0262
vn 0.3741 0.8522 0.3657
vn -0.0000 1.0000 -0.0000
vn -0.0462 -0.0000 0.9989
vn -0.0000 -1.0000 -0.0000
vn 0.0461 -0.0001 -0.9989
vn 0.0461 0.0039 -0.9989
vn -1.0000 -0.0000 -0.0000
vn 0.0461 -0.0000 -0.9989
vn -0.0462 -0.0037 0.9989
vn 0.5452 -0.0000 -0.8383
vn 0.5452 -0.0000 0.8383
vn -0.0019 1.0000 0.0039
vn -0.0020 1.0000 0.0039
vn -0.0019 -1.0000 -0.0038
vn -0.0019 -1.0000 -0.0037
vn 0.0003 -1.0000 -0.0000
vn -0.0006 -1.0000 -0.0000
vn -0.0018 -1.0000 -0.0037
vn -0.0002 -1.0000 -0.0000
vn -0.0019 -1.0000 0.0037
vn -0.0006 -1.0000 0.0001
vn -0.0019 1.0000 -0.0039
vn -0.0020 1.0000 -0.0039
vn 0.0003 1.0000 -0.0000
vn 0.0001 1.0000 -0.0000
vn -0.0019 1.0000 0.0038
vn -0.0001 1.0000 -0.0000
vn -0.6924 -0.0000 -0.7215
vn -0.2276 -0.0000 -0.9738
vn -0.2262 -0.0000 -0.9741
vn -0.6939 -0.0000 -0.7201
vn -0.6925 -0.0000 0.7215
vn -0.2276 -0.0000 0.9738
vn -0.2262 -0.0000 0.9741
vn -0.6939 -0.0000 0.7201
vn -0.0461 -0.0000 0.9989
vn 0.5451 -0.0000 0.8384
vn -0.6916 0.4172 0.5895
vn -0.6431 0.7629 0.0662
vn -1.0000 -0.0000 -0.0001
vn 0.0462 -0.0001 -0.9989
vn -0.0020 1.0000 -0.0040
vn -1.0000 -0.0000 0.0001
vn -0.0461 -0.0001 0.9989
vn 0.5451 -0.0000 -0.8383
vn -0.0018 -1.0000 0.0038
vn 0.5451 -0.0000 0.8383
vn -0.0018 -1.0000 0.0037
vn -0.0019 -1.0000 0.0038
vt 0.399255 0.299825
vt 0.570061 0.298610
vt 0.639924 0.998784
vt 0.469118 0.999998
vt 0.642162 0.054378
vt 0.721333 0.054378
vt 0.721333 0.751379
vt 0.642163 0.751379
vt 0.723577 0.038435
vt 0.802747 0.038435
vt 0.802747 0.742068
vt 0.723577 0.742068
vt 0.723577 0.000000
vt 0.802747 0.000000
vt 0.242907 0.299825
vt 0.072101 0.298610
vt 0.074994 0.244301
vt 0.244962 0.261260
vt 0.642162 0.000000
vt 0.721333 0.000000
vt 0.397201 0.261260
vt 0.567168 0.244301
vt 0.642906 0.833066
vt 0.642906 0.753896
vt 0.711894 0.753624
vt 0.711894 0.833324
vt 0.793469 0.744711
vt 0.793469 0.823881
vt 0.724482 0.824140
vt 0.724482 0.744439
vt 0.884756 0.251502
vt 0.804991 0.251502
vt 0.805140 0.000000
vt 0.884615 0.000000
vt 0.884756 0.478438
vt 0.804991 0.478438
vt 0.805133 0.257744
vt 0.884607 0.257744
vt 0.318650 0.263581
vt 0.317678 0.265012
vt 0.315455 0.266050
vt 0.246655 0.259175
vt 0.187468 0.007275
vt 0.318797 0.261133
vt 0.639863 0.232015
vt 0.639192 0.233610
vt 0.637218 0.235067
vt 0.568416 0.241923
vt 0.460623 0.006683
vt 0.639522 0.229586
vt 0.395508 0.259175
vt 0.454694 0.007275
vt 0.326707 0.266050
vt 0.324484 0.265011
vt 0.323512 0.263580
vt 0.323366 0.261132
vt 0.073747 0.241923
vt 0.004944 0.235068
vt 0.002970 0.233610
vt 0.002300 0.232016
vt 0.002640 0.229587
vt 0.181539 0.006683
vt 0.805008 0.257744
vt 0.804998 0.255191
vt 0.884750 0.255191
vt 0.884740 0.257744
vt 0.805007 0.484846
vt 0.804997 0.482066
vt 0.884750 0.482066
vt 0.884739 0.484846
vt 0.715084 0.753608
vt 0.715084 0.833340
vt 0.721333 0.824155
vt 0.721333 0.744423
vt 0.394958 0.261403
vt 0.247205 0.261403
vt 0.717328 0.753809
vt 0.715084 0.753491
vt 0.717329 0.751379
vt 0.717330 0.753809
vt 0.719574 0.753491
vt 0.455757 0.000243
vt 0.458192 0.000000
vt 0.183971 0.000000
vt 0.186405 0.000243
vt 0.069863 0.298514
vt 0.002238 0.998786
vt -0.000000 0.998690
vt 0.173044 1.000000
vt 0.572299 0.298514
vt 0.642162 0.998688
vt 0.804991 0.038560
vt 0.804991 0.742194
vt 0.721333 0.038560
vt 0.721333 0.742194
vt 0.397001 0.299760
vt 0.245161 0.299761
vt 0.072767 0.243998
vt 0.569395 0.243997
vt 0.711301 0.835570
vt 0.642162 0.835311
vt 0.642162 0.751650
vt 0.711301 0.751379
vt 0.725123 0.742194
vt 0.794262 0.742466
vt 0.794262 0.826126
vt 0.725124 0.826385
vt 0.321081 0.260571
vt 0.321081 0.260572
vt 0.000512 0.228585
vt 0.641651 0.228585
vt 0.807437 0.739044
vt 0.804991 0.739044
vt 0.804991 0.659569
vt 0.807437 0.659569
vt 0.321301 0.264250
vt 0.322967 0.266701
vt 0.319196 0.266702
vt 0.320861 0.264251
vt 0.000000 0.232236
vt 0.001149 0.234967
vt 0.641014 0.234967
vt 0.642162 0.232235
vt 0.326308 0.268262
vt 0.315855 0.268263
vt 0.004116 0.237157
vt 0.638047 0.237157
vt 0.807235 0.484846
vt 0.886405 0.484846
vt 0.888649 0.487085
vt 0.888649 0.657330
vt 0.886405 0.659569
vt 0.807235 0.659569
vt 0.804991 0.657330
vt 0.804991 0.487085
s 1
g off
g 3D_Arrows_by_Peter_Iliev_obj_Material.002
usemtl Material.002
f 7/1/1 46/2/2 37/3/3 40/4/4
f 10/5/5 45/6/6 38/7/7 5/8/8
f 8/9/9 43/10/10 42/11/11 39/12/12
f 43/10/10 8/9/9 2/13/13
f 2/13/13 1/14/13 43/10/10
f 44/15/14 9/16/15 3/17/16
f 3/17/16 31/18/16 44/15/14
f 45/6/6 10/5/5 36/19/17
f 36/19/17 33/20/17 45/6/6
f 46/2/2 7/1/1 30/21/18
f 30/21/18 4/22/18 46/2/2
s 0
f 1/23/19 2/24/20 48/25/21
f 48/25/21 11/26/21 1/23/22
f 33/27/17 36/28/23 50/29/21
f 50/29/21 13/30/21 33/27/17
f 65/31/24 26/32/24 56/33/24
f 56/33/24 51/34/24 65/31/24
f 67/35/25 28/36/25 52/37/25
f 52/37/25 55/38/25 67/35/25
f 58/39/26 22/40/26 12/41/26
f 12/41/27 32/42/27 16/43/27
f 58/39/27 12/41/27 16/43/27
f 66/44/26 58/39/26 16/43/26
f 60/45/28 24/46/28 14/47/28
f 14/47/29 35/48/29 53/49/29
f 60/45/29 14/47/29 53/49/29
f 68/50/29 60/45/29 53/49/29
f 4/22/30 30/21/30 29/51/31
f 29/51/31 15/52/31 53/49/32
f 4/22/33 29/51/31 53/49/32
f 35/48/29 4/22/18 53/49/29
f 29/51/31 47/53/34 61/54/34
f 61/54/34 57/55/34 25/56/34
f 29/51/31 61/54/34 25/56/34
f 29/51/35 25/56/34 15/52/31
f 34/57/36 49/58/36 63/59/36
f 63/59/36 59/60/36 27/61/36
f 34/57/36 63/59/36 27/61/36
f 34/57/37 27/61/37 54/62/37
f 31/18/38 3/17/38 34/57/36
f 34/57/36 54/62/36 16/43/26
f 31/18/39 34/57/36 16/43/26
f 32/42/40 31/18/41 16/43/40
s 1
f 62/63/42 18/64/43 17/65/44
f 17/65/44 21/66/45 62/63/42
f 64/67/46 20/68/47 19/69/48
f 19/69/48 23/70/49 64/67/46
f 48/25/21 62/71/42 21/72/45
f 21/72/45 11/26/21 48/25/21
f 50/29/21 64/73/46 23/74/49
f 23/74/49 13/30/21 50/29/21
f 18/64/43 26/32/24 65/31/24
f 65/31/24 17/65/44 18/64/43
f 20/68/47 28/36/25 67/35/25
f 67/35/25 19/69/48 20/68/47
s 0
f 1/75/13 29/51/31 30/21/18
f 2/76/13 31/18/16 32/42/27
f 3/77/16 33/78/50 34/79/37
f 4/80/18 35/79/32 36/81/50
f 15/52/31 51/82/24 52/83/25
f 52/83/51 53/49/32 15/52/31
f 16/43/27 54/62/37 55/84/51
f 55/84/25 56/85/24 16/43/27
s 1
f 45/86/6 9/16/15 6/87/52 38/88/7
f 9/16/15 44/15/14 41/89/53 6/87/52
f 46/2/2 10/90/5 5/91/8 37/3/3
f 43/10/10 7/92/1 40/93/4 42/11/11
f 44/94/14 8/9/9 39/12/12 41/95/53
f 1/75/13 30/21/18 7/1/1
f 7/1/1 43/96/10 1/75/13
f 8/97/9 44/15/14 31/18/16
f 31/18/16 2/76/13 8/97/9
f 9/16/15 45/86/6 33/98/17
f 33/98/17 3/17/16 9/16/15
f 10/90/5 46/2/2 4/22/18
f 4/22/18 36/99/17 10/90/5
s 0
f 11/26/21 47/100/34 29/101/31
f 29/101/31 1/23/13 11/26/54
f 2/24/55 32/102/27 12/103/27
f 12/103/26 48/25/21 2/24/13
f 13/30/54 49/104/56 34/105/56
f 34/105/56 33/27/17 13/30/57
f 36/28/17 35/106/28 14/107/29
f 14/107/29 50/29/21 36/28/58
f 25/56/34 65/108/24 51/82/59
f 51/82/24 15/52/31 25/56/60
f 26/109/24 66/44/27 16/43/27
f 16/43/27 56/85/59 26/109/24
f 27/61/37 67/110/25 55/84/61
f 55/84/25 54/62/37 27/61/36
f 28/111/25 68/50/29 53/49/29
f 53/49/28 52/83/51 28/111/25
f 56/112/24 55/113/25 52/114/25
f 52/114/25 51/115/24 56/112/24
s 1
f 17/116/44 57/55/34 61/54/62
f 61/54/62 21/117/45 17/116/44
f 62/118/42 22/40/27 58/39/27
f 58/39/27 18/119/43 62/118/42
f 19/120/48 59/60/37 63/59/37
f 63/59/37 23/121/49 19/120/48
f 64/122/46 24/46/32 60/45/28
f 60/45/28 20/123/47 64/122/46
f 21/117/45 61/54/62 47/53/63
f 47/53/63 11/124/21 21/117/45
f 48/125/21 12/41/27 22/40/27
f 22/40/27 62/118/42 48/125/21
f 23/121/49 63/59/37 49/58/36
f 49/58/36 13/126/21 23/121/49
f 50/127/21 14/47/28 24/46/32
f 24/46/32 64/122/46 50/127/21
f 65/108/24 25/56/62 57/55/34
f 57/55/34 17/116/44 65/108/24
f 18/119/43 58/39/27 66/44/27
f 66/44/27 26/109/24 18/119/43
f 67/110/25 27/61/37 59/60/37
f 59/60/37 19/120/48 67/110/25
f 20/123/47 60/45/28 68/50/29
f 68/50/29 28/111/25 20/123/47
f 5/128/8 38/129/7 6/130/52 41/131/53 39/132/12 42/133/11 40/134/4 37/135/3
