# 3ds Max Wavefront OBJ Exporter v0.99 - (c)2007 guruware
# File Created: 16.11.2023 00:31:26

mtllib Palo.mtl

#
# object mmGroup0
#

v  -7.1680 -0.5255 0.0147
v  4.4628 0.0628 -0.2336
v  -7.1662 -0.5569 0.0178
v  -7.1645 -0.5870 0.0269
v  4.4673 -0.0154 -0.2099
v  -7.1629 -0.6148 0.0418
v  4.4715 -0.0874 -0.1713
v  -7.1614 -0.6392 0.0619
v  4.4751 -0.1506 -0.1194
v  -7.1603 -0.6592 0.0863
v  4.4781 -0.2024 -0.0561
v  -7.1594 -0.6741 0.1141
v  4.4803 -0.2409 0.0160
v  -7.1589 -0.6832 0.1443
v  4.4821 -0.2726 0.1758
v  -7.1587 -0.6863 0.1758
v  4.4817 -0.2646 0.2572
v  -7.1589 -0.6832 0.2072
v  -7.1594 -0.6741 0.2374
v  4.4803 -0.2409 0.3355
v  -7.1603 -0.6592 0.2653
v  4.4781 -0.2024 0.4077
v  -7.1614 -0.6392 0.2897
v  4.4751 -0.1506 0.4709
v  -7.1629 -0.6148 0.3097
v  4.4715 -0.0874 0.5228
v  -7.1645 -0.5870 0.3246
v  4.4673 -0.0154 0.5614
v  -7.1662 -0.5569 0.3338
v  4.4581 0.1441 0.5932
v  -7.1680 -0.5255 0.3368
v  4.4534 0.2254 0.5852
v  -7.1698 -0.4941 0.3338
v  -7.1715 -0.4639 0.3246
v  4.4489 0.3035 0.5614
v  -7.1731 -0.4361 0.3097
v  4.4448 0.3756 0.5228
v  -7.1745 -0.4118 0.2897
v  4.4412 0.4387 0.4709
v  -7.1757 -0.3918 0.2653
v  4.4382 0.4906 0.4077
v  -7.1766 -0.3769 0.2374
v  4.4359 0.5291 0.3355
v  -7.1771 -0.3678 0.2072
v  4.4341 0.5608 0.1758
v  -7.1773 -0.3647 0.1758
v  4.4346 0.5528 0.0943
v  -7.1771 -0.3678 0.1443
v  -7.1766 -0.3769 0.1141
v  4.4359 0.5291 0.0160
v  -7.1757 -0.3918 0.0863
v  4.4382 0.4906 -0.0561
v  -7.1745 -0.4118 0.0619
v  4.4412 0.4387 -0.1194
v  -7.1731 -0.4361 0.0418
v  4.4448 0.3756 -0.1713
v  -7.1715 -0.4639 0.0269
v  4.4489 0.3035 -0.2099
v  -7.1698 -0.4941 0.0178
v  4.4581 0.1441 -0.2416
v  4.4817 -0.2646 0.0943
v  4.4628 0.0628 0.5852
v  4.4346 0.5528 0.2572
v  4.4534 0.2254 -0.2336
# 64 vertices

vn -0.0189 -0.0567 -0.9982
vn -0.0103 -0.1960 -0.9806
vn -0.0133 -0.1961 -0.9805
vn -0.0030 -0.3315 -0.9435
vn 0.3596 -0.3538 -0.8635
vn -0.0011 -0.5092 -0.8606
vn 0.0113 -0.5689 -0.8223
vn 0.0163 -0.6668 -0.7451
vn 0.0250 -0.7179 -0.6957
vn 0.0229 -0.7991 -0.6007
vn 0.0269 -0.8399 -0.5421
vn 0.0298 -0.9008 -0.4333
vn 0.0734 -0.9270 -0.3678
vn 0.0052 -0.9808 -0.1948
vn 0.0411 -0.9990 -0.0159
vn 0.0353 -0.9978 0.0555
vn 0.0349 -0.9802 0.1950
vn 0.0318 -0.9803 0.1950
vn 0.0322 -0.9432 0.3307
vn 0.2530 -0.8857 0.3892
vn 0.0192 -0.8609 0.5083
vn 0.0259 -0.8222 0.5686
vn 0.0208 -0.7451 0.6666
vn 0.0237 -0.6955 0.7182
vn 0.0115 -0.6010 0.7991
vn 0.0098 -0.5425 0.8400
vn 0.0029 -0.4338 0.9010
vn 0.0411 -0.3661 0.9297
vn -0.0595 -0.1983 0.9783
vn -0.0154 -0.0168 0.9997
vn -0.0252 0.0541 0.9982
vn -0.0327 0.1935 0.9806
vn -0.0358 0.1933 0.9805
vn -0.0411 0.3289 0.9435
vn 0.3166 0.3927 0.8635
vn -0.0596 0.5057 0.8606
vn -0.0541 0.5664 0.8223
vn -0.0604 0.6642 0.7451
vn -0.0576 0.7161 0.6957
vn -0.0690 0.7965 0.6007
vn -0.0697 0.8374 0.5421
vn -0.0739 0.8982 0.4333
vn -0.0335 0.9293 0.3678
vn -0.1074 0.9749 0.1948
vn -0.0738 0.9971 0.0159
vn -0.0794 0.9953 -0.0555
vn -0.0779 0.9777 -0.1950
vn -0.0809 0.9775 -0.1950
vn -0.0763 0.9406 -0.3307
vn 0.1497 0.9089 -0.3892
vn -0.0798 0.8575 -0.5083
vn -0.0687 0.8197 -0.5686
vn -0.0649 0.7426 -0.6666
vn -0.0563 0.6936 -0.7182
vn -0.0576 0.5984 -0.7991
vn -0.0526 0.5400 -0.8400
vn -0.0470 0.4313 -0.9010
vn -0.0012 0.3684 -0.9297
vn -0.0819 0.1902 -0.9783
vn -0.0173 0.0150 -0.9997
vn 0.0351 -0.9802 -0.1950
vn -0.0101 -0.1959 0.9806
vn -0.0777 0.9777 0.1950
vn -0.0325 0.1935 -0.9806
# 64 vertex normals

vt 0.2259 0.1344 0.0000
# 1 texture coords

o mmGroup0
g mmGroup0
usemtl 03___Default
s 1
f 1/1/1 2/1/2 3/1/3 
f 2/1/2 4/1/4 3/1/3 
f 5/1/5 6/1/6 4/1/4 
f 7/1/7 8/1/8 6/1/6 
f 9/1/9 10/1/10 8/1/8 
f 11/1/11 12/1/12 10/1/10 
f 13/1/13 14/1/14 12/1/12 
f 14/1/14 15/1/15 16/1/16 
f 16/1/16 17/1/17 18/1/18 
f 17/1/17 19/1/19 18/1/18 
f 20/1/20 21/1/21 19/1/19 
f 22/1/22 23/1/23 21/1/21 
f 24/1/24 25/1/25 23/1/23 
f 26/1/26 27/1/27 25/1/25 
f 28/1/28 29/1/29 27/1/27 
f 29/1/29 30/1/30 31/1/31 
f 31/1/31 32/1/32 33/1/33 
f 32/1/32 34/1/34 33/1/33 
f 35/1/35 36/1/36 34/1/34 
f 37/1/37 38/1/38 36/1/36 
f 39/1/39 40/1/40 38/1/38 
f 41/1/41 42/1/42 40/1/40 
f 43/1/43 44/1/44 42/1/42 
f 44/1/44 45/1/45 46/1/46 
f 46/1/46 47/1/47 48/1/48 
f 47/1/47 49/1/49 48/1/48 
f 50/1/50 51/1/51 49/1/49 
f 52/1/52 53/1/53 51/1/51 
f 54/1/54 55/1/55 53/1/53 
f 56/1/56 57/1/57 55/1/55 
f 35/1/35 20/1/20 5/1/5 
f 58/1/58 59/1/59 57/1/57 
f 59/1/59 60/1/60 1/1/1 
f 29/1/29 44/1/44 59/1/59 
f 1/1/1 60/1/60 2/1/2 
f 2/1/2 5/1/5 4/1/4 
f 5/1/5 7/1/7 6/1/6 
f 7/1/7 9/1/9 8/1/8 
f 9/1/9 11/1/11 10/1/10 
f 11/1/11 13/1/13 12/1/12 
f 13/1/13 61/1/61 14/1/14 
f 14/1/14 61/1/61 15/1/15 
f 16/1/16 15/1/15 17/1/17 
f 17/1/17 20/1/20 19/1/19 
f 20/1/20 22/1/22 21/1/21 
f 22/1/22 24/1/24 23/1/23 
f 24/1/24 26/1/26 25/1/25 
f 26/1/26 28/1/28 27/1/27 
f 28/1/28 62/1/62 29/1/29 
f 29/1/29 62/1/62 30/1/30 
f 31/1/31 30/1/30 32/1/32 
f 32/1/32 35/1/35 34/1/34 
f 35/1/35 37/1/37 36/1/36 
f 37/1/37 39/1/39 38/1/38 
f 39/1/39 41/1/41 40/1/40 
f 41/1/41 43/1/43 42/1/42 
f 43/1/43 63/1/63 44/1/44 
f 44/1/44 63/1/63 45/1/45 
f 46/1/46 45/1/45 47/1/47 
f 47/1/47 50/1/50 49/1/49 
f 50/1/50 52/1/52 51/1/51 
f 52/1/52 54/1/54 53/1/53 
f 54/1/54 56/1/56 55/1/55 
f 56/1/56 58/1/58 57/1/57 
f 5/1/5 2/1/2 60/1/60 
f 60/1/60 64/1/64 58/1/58 
f 58/1/58 56/1/56 54/1/54 
f 54/1/54 52/1/52 50/1/50 
f 50/1/50 47/1/47 45/1/45 
f 45/1/45 63/1/63 43/1/43 
f 43/1/43 41/1/41 39/1/39 
f 39/1/39 37/1/37 35/1/35 
f 35/1/35 32/1/32 30/1/30 
f 30/1/30 62/1/62 28/1/28 
f 28/1/28 26/1/26 24/1/24 
f 24/1/24 22/1/22 20/1/20 
f 20/1/20 17/1/17 15/1/15 
f 15/1/15 61/1/61 13/1/13 
f 13/1/13 11/1/11 9/1/9 
f 9/1/9 7/1/7 5/1/5 
f 5/1/5 60/1/60 58/1/58 
f 58/1/58 54/1/54 50/1/50 
f 50/1/50 45/1/45 43/1/43 
f 43/1/43 39/1/39 35/1/35 
f 35/1/35 30/1/30 28/1/28 
f 28/1/28 24/1/24 20/1/20 
f 20/1/20 15/1/15 13/1/13 
f 13/1/13 9/1/9 5/1/5 
f 5/1/5 58/1/58 50/1/50 
f 50/1/50 43/1/43 35/1/35 
f 35/1/35 28/1/28 20/1/20 
f 20/1/20 13/1/13 5/1/5 
f 5/1/5 50/1/50 35/1/35 
f 58/1/58 64/1/64 59/1/59 
f 59/1/59 64/1/64 60/1/60 
f 59/1/59 1/1/1 3/1/3 
f 3/1/3 4/1/4 6/1/6 
f 6/1/6 8/1/8 10/1/10 
f 10/1/10 12/1/12 14/1/14 
f 14/1/14 16/1/16 18/1/18 
f 18/1/18 19/1/19 21/1/21 
f 21/1/21 23/1/23 25/1/25 
f 25/1/25 27/1/27 29/1/29 
f 29/1/29 31/1/31 33/1/33 
f 33/1/33 34/1/34 36/1/36 
f 36/1/36 38/1/38 40/1/40 
f 40/1/40 42/1/42 44/1/44 
f 44/1/44 46/1/46 48/1/48 
f 48/1/48 49/1/49 51/1/51 
f 51/1/51 53/1/53 55/1/55 
f 55/1/55 57/1/57 59/1/59 
f 59/1/59 3/1/3 6/1/6 
f 6/1/6 10/1/10 14/1/14 
f 14/1/14 18/1/18 21/1/21 
f 21/1/21 25/1/25 29/1/29 
f 29/1/29 33/1/33 36/1/36 
f 36/1/36 40/1/40 44/1/44 
f 44/1/44 48/1/48 51/1/51 
f 51/1/51 55/1/55 59/1/59 
f 59/1/59 6/1/6 14/1/14 
f 14/1/14 21/1/21 29/1/29 
f 29/1/29 36/1/36 44/1/44 
f 44/1/44 51/1/51 59/1/59 
f 59/1/59 14/1/14 29/1/29 
# 124 faces

#
# object Box001
#

v  -1.2489 -4.0496 0.2113
v  -1.2489 -4.0496 0.1670
v  -1.0931 -4.0496 0.1670
v  -1.0931 -4.0496 0.2113
v  -1.2489 -0.0969 0.2113
v  -1.0931 -0.0969 0.2113
v  -1.0931 -0.0969 0.1670
v  -1.2489 -0.0969 0.1670
# 8 vertices

vn 0.0000 -1.0000 -0.0000
vn 0.0000 1.0000 -0.0000
vn 0.0000 0.0000 1.0000
vn 1.0000 0.0000 -0.0000
vn 0.0000 0.0000 -1.0000
vn -1.0000 0.0000 -0.0000
# 6 vertex normals

vt 1.0000 0.0000 0.0000
vt 1.0000 1.0000 0.0000
vt 0.0000 1.0000 0.0000
vt 0.0000 0.0000 0.0000
# 4 texture coords

o Box001
g Box001
usemtl wire_153228184
s 2
f 65/2/65 66/3/65 67/4/65 
f 67/4/65 68/5/65 65/2/65 
s 4
f 69/5/66 70/2/66 71/3/66 
f 71/3/66 72/4/66 69/5/66 
s 8
f 65/5/67 68/2/67 70/3/67 
f 70/3/67 69/4/67 65/5/67 
s 16
f 68/5/68 67/2/68 71/3/68 
f 71/3/68 70/4/68 68/5/68 
s 32
f 67/5/69 66/2/69 72/3/69 
f 72/3/69 71/4/69 67/5/69 
s 64
f 66/5/70 65/2/70 69/3/70 
f 69/3/70 72/4/70 66/5/70 
# 12 faces

