# 3ds Max Wavefront OBJ Exporter v0.99 - (c)2007 guruware
# File Created: 15.11.2023 04:04:59

mtllib PierIzq.mtl

#
# object mesh0130_003
#

v  1.1196 -4.9957 1.5210
v  -0.0671 -4.9957 1.2552
v  1.3773 -5.0079 0.9266
v  1.2373 -0.1797 -0.0330
v  0.9391 -0.9526 -1.5301
v  1.0791 -0.1554 -2.1144
v  0.0708 -0.1168 -2.5525
v  -0.5844 -0.9343 -1.6579
v  0.8073 -1.7154 -0.9743
v  0.9959 -1.7417 0.2693
v  0.4705 -1.7215 0.8231
v  0.5699 -0.2182 0.5269
v  -0.4809 -0.9323 0.5087
v  -0.4262 -1.7357 0.3870
v  0.4177 -2.4944 0.2794
v  0.8580 -2.4863 -0.1506
v  0.7058 -2.4193 -1.6457
v  -0.4323 -2.4132 -1.3922
v  -0.5093 -1.6667 -1.2157
v  -0.5743 -2.4863 -0.9540
v  -0.6148 -1.7275 -0.6233
v  -0.7507 -0.9019 -0.7511
v  0.5212 -4.1396 -1.0331
v  -0.4160 -4.2390 -1.5118
v  1.0649 -4.3404 0.8637
v  0.0181 -4.3424 0.8718
v  -0.1746 -4.0645 -0.9824
v  -0.3795 -2.4964 -0.1588
v  -0.2253 -4.2106 -2.4024
v  0.4259 -4.1416 -2.3882
v  0.6247 -4.9957 -2.7087
v  -0.1766 -4.9957 -2.8102
v  -0.4992 -4.9957 -2.3537
v  -0.6919 -0.5651 0.3302
v  -0.9780 -0.4779 0.0867
v  -0.9780 -0.8329 -0.7389
v  -0.9780 -0.8268 -1.7614
# 37 vertices

vn -0.0042 -0.9998 0.0187
vn -0.3154 -0.9480 0.0426
vn -0.0065 -0.9999 0.0086
vn 0.9033 0.0865 0.4201
vn 0.6721 -0.5322 -0.5149
vn 0.8462 -0.3133 -0.4310
vn 0.8462 -0.3134 -0.4310
vn 0.6721 -0.5321 -0.5149
vn 0.1842 -0.6463 -0.7405
vn -0.1673 -0.7511 -0.6386
vn 0.7115 -0.2725 -0.6477
vn 0.9180 -0.2752 0.2857
vn 0.9180 -0.2751 0.2858
vn 0.9179 -0.2752 0.2857
vn 0.3009 -0.1672 0.9389
vn 0.1213 0.2418 0.9627
vn 0.3009 -0.1671 0.9389
vn -0.5910 0.0412 0.8056
vn -0.6937 -0.2456 0.6771
vn 0.1393 -0.5944 0.7921
vn 0.1393 -0.5943 0.7921
vn 0.9180 -0.2751 0.2857
vn 0.9411 -0.2724 0.2005
vn 0.9179 -0.2752 0.2858
vn 0.9411 -0.2723 0.2005
vn 0.9262 0.0250 -0.3762
vn -0.1237 0.5267 -0.8410
vn -0.6422 0.2946 -0.7076
vn 0.0688 -0.0477 -0.9965
vn 0.6429 -0.1169 -0.7570
vn -0.2820 -0.1266 -0.9510
vn -0.9939 -0.1076 0.0237
vn -0.7920 -0.1451 -0.5931
vn -0.9904 -0.1304 0.0468
vn -0.9721 -0.0984 -0.2128
vn -0.8187 -0.5697 0.0716
vn -0.8889 -0.2130 -0.4056
vn -0.1673 -0.7511 -0.6387
vn -0.7055 -0.1853 -0.6841
vn 0.6429 -0.1168 -0.7570
vn 0.9262 0.0251 -0.3762
vn 0.9991 -0.0010 0.0433
vn 0.1393 -0.5944 0.7920
vn 0.8896 -0.2327 0.3930
vn -0.9899 0.1375 0.0356
vn -0.9939 -0.1076 0.0236
vn -0.6423 0.2946 -0.7076
vn 0.5322 0.7661 0.3603
vn 0.5809 0.8140 -0.0063
vn -0.4115 0.8337 0.3683
vn -0.3910 0.9034 0.1760
vn -0.6976 -0.3641 0.6170
vn 0.0926 -0.5608 0.8227
vn -0.7030 -0.4219 0.5725
vn -0.7031 -0.4219 0.5725
vn -0.5843 0.3737 -0.7204
vn 0.4705 0.3994 -0.7868
vn 0.3100 0.4454 -0.8400
vn 0.9899 -0.1065 -0.0931
vn 0.8712 0.2070 -0.4452
vn 0.5379 0.3597 -0.7624
vn 0.9133 0.3978 0.0872
vn 0.8122 0.4323 -0.3918
vn 0.5322 0.7661 0.3604
vn 0.8121 0.4323 -0.3919
vn 0.6581 0.7138 0.2397
vn 0.8990 0.4291 0.0876
vn 0.5321 0.7661 0.3604
vn 0.4028 0.6648 0.6291
vn 0.4029 0.6647 0.6292
vn 0.3923 0.7919 0.4679
vn -0.6678 0.4478 0.5946
vn -0.9899 0.1375 0.0357
vn -0.8578 0.3805 0.3455
vn -0.8226 -0.1111 0.5577
vn -0.6937 -0.2457 0.6771
vn -0.8187 -0.5697 0.0715
vn -0.2617 0.3985 -0.8790
vn 0.5379 0.3596 -0.7624
vn 0.3099 0.4454 -0.8400
vn -0.9569 0.1873 -0.2221
vn -0.8619 -0.4660 -0.2001
vn -0.6502 -0.4899 0.5807
vn -0.5910 0.0411 0.8056
vn -0.5007 -0.4775 0.7220
vn -0.0035 -0.7471 0.6647
vn -0.0018 -0.9729 0.2311
vn -0.5208 -0.6189 0.5880
vn -0.8187 -0.5698 0.0715
vn -0.0009 -0.9688 -0.2479
vn -0.4399 -0.8965 0.0527
vn -0.0029 -1.0000 -0.0005
vn -0.3154 -0.9480 0.0427
vn 0.0000 -1.0000 0.0000
# 94 vertex normals

vt 0.9297 1.5664 0.0000
# 1 texture coords

o mesh0130_003
g mesh0130_003
usemtl 01___Default
s off
f 1/1/1 2/1/2 3/1/3 
f 4/1/4 5/1/5 6/1/6 
f 6/1/7 5/1/8 7/1/9 
f 5/1/8 8/1/10 7/1/9 
f 9/1/11 5/1/8 10/1/12 
f 5/1/8 4/1/4 10/1/13 
f 10/1/14 4/1/4 11/1/15 
f 4/1/4 12/1/16 11/1/17 
f 13/1/18 14/1/19 12/1/16 
f 12/1/16 14/1/19 11/1/15 
f 14/1/19 15/1/20 11/1/15 
f 11/1/17 15/1/21 10/1/22 
f 15/1/21 16/1/23 10/1/24 
f 10/1/12 16/1/25 9/1/11 
f 16/1/23 17/1/26 9/1/11 
f 17/1/27 18/1/28 9/1/29 
f 9/1/30 18/1/28 19/1/31 
f 18/1/28 20/1/32 19/1/33 
f 20/1/32 21/1/34 19/1/35 
f 21/1/34 22/1/36 19/1/37 
f 22/1/36 8/1/38 19/1/37 
f 19/1/39 8/1/10 9/1/40 
f 8/1/10 5/1/5 9/1/30 
f 17/1/41 16/1/23 23/1/42 
f 16/1/23 15/1/43 23/1/44 
f 24/1/45 20/1/46 18/1/47 
f 25/1/48 23/1/49 26/1/50 
f 26/1/50 23/1/49 27/1/51 
f 27/1/52 23/1/53 28/1/54 
f 23/1/53 15/1/21 28/1/54 
f 28/1/55 15/1/20 14/1/19 
f 24/1/45 18/1/28 29/1/56 
f 18/1/28 17/1/27 29/1/56 
f 29/1/56 17/1/57 30/1/58 
f 17/1/59 23/1/42 30/1/60 
f 30/1/61 23/1/62 31/1/63 
f 23/1/62 25/1/64 31/1/63 
f 31/1/65 25/1/66 3/1/67 
f 3/1/67 25/1/68 1/1/69 
f 1/1/70 25/1/71 2/1/72 
f 25/1/64 26/1/50 2/1/72 
f 2/1/72 26/1/50 24/1/73 
f 26/1/50 27/1/74 24/1/45 
f 24/1/45 27/1/75 20/1/46 
f 27/1/75 28/1/55 20/1/32 
f 20/1/46 28/1/54 21/1/34 
f 28/1/54 14/1/76 21/1/34 
f 21/1/34 14/1/19 22/1/77 
f 14/1/19 13/1/18 22/1/36 
f 31/1/65 32/1/78 30/1/79 
f 30/1/80 32/1/78 29/1/56 
f 32/1/78 33/1/81 29/1/56 
f 29/1/56 33/1/81 24/1/45 
f 33/1/82 2/1/83 24/1/45 
f 22/1/77 13/1/84 34/1/85 
f 35/1/86 36/1/87 34/1/85 
f 34/1/88 36/1/87 22/1/89 
f 36/1/87 37/1/90 22/1/77 
f 22/1/77 37/1/90 8/1/10 
f 2/1/2 33/1/91 31/1/92 
f 31/1/92 3/1/3 2/1/93 
f 31/1/92 33/1/91 32/1/94 
# 62 faces

