# 3ds Max Wavefront OBJ Exporter v0.99 - (c)2007 guruware
# File Created: 15.11.2023 07:38:27

mtllib Superior.mtl

#
# object Mesh14
#

v  17.1965 47.3176 -8.4582
v  17.1965 80.5407 -19.5639
v  17.1965 80.5407 -6.6228
v  17.1965 47.3176 -19.8087
v  -19.3826 47.3176 -8.4582
v  16.3073 48.2535 -8.3910
v  -18.4922 48.2535 -8.3910
v  16.3073 48.2862 -8.7056
v  -18.4922 48.2862 -8.7056
v  -18.4922 79.6226 -7.8187
v  16.3073 79.6226 -7.8187
v  16.3073 79.6037 -6.6995
v  -19.3826 80.5407 -6.6228
v  -18.4922 79.6037 -6.6995
v  -19.3826 80.5407 -19.5639
v  -19.3826 47.3176 -19.8087
# 16 vertices

vn 1.0000 0.0000 -0.0000
vn 0.0000 -1.0000 -0.0000
vn 0.0000 -0.0716 0.9974
vn 0.0000 0.9947 0.1028
vn 0.0000 -0.0283 0.9996
vn -1.0000 0.0000 -0.0000
vn 0.0187 -0.0539 0.9984
vn -0.0280 -0.0551 0.9981
vn 0.0000 -0.0816 0.9967
vn 0.0293 -0.0539 0.9981
vn -0.0173 -0.0552 0.9983
vn 0.0000 0.0074 -1.0000
vn 0.0000 1.0000 -0.0000
vn 0.0000 -0.9999 -0.0167
# 14 vertex normals

vt 0.9980 0.0020 0.0000
vt 0.0020 0.0020 0.0000
vt 0.5499 0.0020 0.0000
vt 0.5366 0.0160 0.0000
vt 0.0153 0.0160 0.0000
vt 0.5366 0.0165 0.0000
vt 0.0153 0.0165 0.0000
vt 0.0153 0.4859 0.0000
vt 0.5366 0.4859 0.0000
vt 0.5366 0.4856 0.0000
vt 0.5499 0.4996 0.0000
vt 0.0020 0.4996 0.0000
vt 0.0153 0.4856 0.0000
vt 0.5499 0.9980 0.0000
vt 0.0020 0.5004 0.0000
vt 0.5499 0.5004 0.0000
vt 0.0020 0.9980 0.0000
vt 0.0153 0.9842 0.0000
vt 0.5366 0.9840 0.0000
vt 0.5366 0.9842 0.0000
vt 0.0153 0.9840 0.0000
# 21 texture coords

o Mesh14
g Mesh14
usemtl 02___Default
s off
f 1/1/1 2/2/1 3/2/1 
f 2/2/1 1/1/1 4/1/1 
f 4/3/2 1/3/2 5/2/2 
f 6/4/3 5/2/3 1/3/3 
f 5/2/3 6/4/3 7/5/3 
f 8/6/4 7/5/4 6/4/4 
f 7/5/4 8/6/4 9/7/4 
f 8/6/5 10/8/5 9/7/5 
f 10/8/5 8/6/5 11/9/5 
f 6/4/6 11/9/6 8/6/6 
f 11/9/6 6/4/6 12/10/6 
f 12/10/7 6/4/7 1/3/7 
f 3/11/8 12/10/8 1/3/8 
f 13/12/9 12/10/9 3/11/9 
f 12/10/9 13/12/9 14/13/9 
f 13/12/10 7/5/10 14/13/10 
f 13/12/11 5/2/11 7/5/11 
f 15/2/6 5/1/6 13/2/6 
f 5/1/6 15/2/6 16/1/6 
f 15/14/12 4/15/12 16/16/12 
f 4/15/12 15/14/12 2/17/12 
f 15/2/13 3/1/13 2/1/13 
f 3/1/13 15/2/13 13/2/13 
f 4/3/2 5/2/2 16/2/2 
f 7/5/1 10/8/1 14/13/1 
f 10/8/1 7/5/1 9/7/1 
f 11/18/14 14/19/14 10/20/14 
f 14/19/14 11/18/14 12/21/14 
# 28 faces

#
# object Line001
#

v  -16.7872 53.0477 -8.6325
v  -15.5227 51.6412 -8.6384
v  -15.5227 51.6404 -8.0526
v  -16.7872 53.0468 -8.0468
v  -15.9797 49.7782 -8.6461
v  -15.9797 49.7774 -8.0604
v  -14.3808 50.8567 -8.6416
v  -14.3808 50.8558 -8.0559
v  -12.0981 50.0725 -8.6449
v  -12.0981 50.0717 -8.0592
v  -13.1386 51.7195 -8.6381
v  -13.1386 51.7186 -8.0523
v  -11.8432 53.0697 -8.6324
v  -11.8432 53.0689 -8.0467
v  -13.6259 53.0470 -8.6325
v  -13.6259 53.0461 -8.0468
v  -14.5893 54.8069 -8.6252
v  -14.5893 54.8060 -8.0395
v  -15.2008 53.0546 -8.6325
v  -15.2008 53.0537 -8.0468
# 20 vertices

vn -0.7436 -0.6686 -0.0028
vn -0.9712 0.2382 0.0010
vn 0.5592 -0.8290 -0.0034
vn -0.3249 -0.9457 -0.0039
vn 0.8454 0.5341 0.0022
vn 0.7216 -0.6923 -0.0029
vn -0.0128 0.9999 0.0042
vn 0.8772 0.4802 0.0020
vn -0.9442 0.3295 0.0014
vn -0.0044 1.0000 0.0042
vn 0.0000 0.0015 -1.0000
vn 0.0000 -0.0015 1.0000
# 12 vertex normals

o Line001
g Line001
usemtl Varitas_polySurface2306_mso
s 1
f 17//15 18//15 19//15 
f 17//15 19//15 20//15 
s 4
f 18//16 21//16 22//16 
f 18//16 22//16 19//16 
s 2
f 21//17 23//17 24//17 
f 21//17 24//17 22//17 
s 4
f 23//18 25//18 26//18 
f 23//18 26//18 24//18 
s 2
f 25//19 27//19 28//19 
f 25//19 28//19 26//19 
s 4
f 27//20 29//20 30//20 
f 27//20 30//20 28//20 
s 2
f 29//21 31//21 32//21 
f 29//21 32//21 30//21 
s 4
f 31//22 33//22 34//22 
f 31//22 34//22 32//22 
s 2
f 33//23 35//23 36//23 
f 33//23 36//23 34//23 
s 4
f 35//24 17//24 20//24 
f 35//24 20//24 36//24 
s 16
f 23//25 27//25 25//25 
f 18//25 23//25 21//25 
f 27//25 31//25 29//25 
f 31//25 35//25 33//25 
f 35//25 18//25 17//25 
f 31//25 18//25 35//25 
f 31//25 23//25 18//25 
f 31//25 27//25 23//25 
f 24//26 26//26 28//26 
f 19//26 22//26 24//26 
f 28//26 30//26 32//26 
f 32//26 34//26 36//26 
f 36//26 20//26 19//26 
f 32//26 36//26 19//26 
f 32//26 19//26 24//26 
f 32//26 24//26 28//26 
# 36 faces

#
# object Line002
#

v  -10.1790 53.0477 -8.6325
v  -8.9145 51.6412 -8.6384
v  -8.9145 51.6404 -8.0526
v  -10.1790 53.0468 -8.0468
v  -9.3715 49.7782 -8.6461
v  -9.3715 49.7774 -8.0604
v  -7.7726 50.8567 -8.6416
v  -7.7726 50.8558 -8.0559
v  -5.4899 50.0725 -8.6449
v  -5.4899 50.0717 -8.0592
v  -6.5304 51.7195 -8.6381
v  -6.5304 51.7186 -8.0523
v  -5.2350 53.0697 -8.6324
v  -5.2350 53.0689 -8.0467
v  -7.0177 53.0470 -8.6325
v  -7.0177 53.0461 -8.0468
v  -7.9811 54.8069 -8.6252
v  -7.9811 54.8060 -8.0395
v  -8.5926 53.0546 -8.6325
v  -8.5926 53.0537 -8.0468
# 20 vertices

vn -0.7436 -0.6686 -0.0028
vn -0.9712 0.2382 0.0010
vn 0.5592 -0.8290 -0.0034
vn -0.3249 -0.9457 -0.0039
vn 0.8454 0.5341 0.0022
vn 0.7216 -0.6923 -0.0029
vn -0.0128 0.9999 0.0042
vn 0.8772 0.4802 0.0020
vn -0.9442 0.3295 0.0014
vn -0.0044 1.0000 0.0042
vn 0.0000 0.0015 -1.0000
vn 0.0000 -0.0015 1.0000
# 12 vertex normals

o Line002
g Line002
usemtl Varitas_polySurface2306_mso
s 1
f 37//27 38//27 39//27 
f 37//27 39//27 40//27 
s 4
f 38//28 41//28 42//28 
f 38//28 42//28 39//28 
s 2
f 41//29 43//29 44//29 
f 41//29 44//29 42//29 
s 4
f 43//30 45//30 46//30 
f 43//30 46//30 44//30 
s 2
f 45//31 47//31 48//31 
f 45//31 48//31 46//31 
s 4
f 47//32 49//32 50//32 
f 47//32 50//32 48//32 
s 2
f 49//33 51//33 52//33 
f 49//33 52//33 50//33 
s 4
f 51//34 53//34 54//34 
f 51//34 54//34 52//34 
s 2
f 53//35 55//35 56//35 
f 53//35 56//35 54//35 
s 4
f 55//36 37//36 40//36 
f 55//36 40//36 56//36 
s 16
f 43//37 47//37 45//37 
f 38//37 43//37 41//37 
f 47//37 51//37 49//37 
f 51//37 55//37 53//37 
f 55//37 38//37 37//37 
f 51//37 38//37 55//37 
f 51//37 43//37 38//37 
f 51//37 47//37 43//37 
f 44//38 46//38 48//38 
f 39//38 42//38 44//38 
f 48//38 50//38 52//38 
f 52//38 54//38 56//38 
f 56//38 40//38 39//38 
f 52//38 56//38 39//38 
f 52//38 39//38 44//38 
f 52//38 44//38 48//38 
# 36 faces

#
# object Line003
#

v  -3.6539 53.0477 -8.6325
v  -2.3893 51.6412 -8.6384
v  -2.3893 51.6404 -8.0526
v  -3.6539 53.0468 -8.0468
v  -2.8463 49.7782 -8.6461
v  -2.8463 49.7774 -8.0604
v  -1.2475 50.8567 -8.6416
v  -1.2475 50.8558 -8.0559
v  1.0353 50.0725 -8.6449
v  1.0353 50.0717 -8.0592
v  -0.0052 51.7195 -8.6381
v  -0.0052 51.7186 -8.0523
v  1.2902 53.0697 -8.6324
v  1.2902 53.0689 -8.0467
v  -0.4925 53.0470 -8.6325
v  -0.4925 53.0461 -8.0468
v  -1.4559 54.8069 -8.6252
v  -1.4559 54.8060 -8.0395
v  -2.0675 53.0546 -8.6325
v  -2.0675 53.0537 -8.0468
# 20 vertices

vn -0.7436 -0.6686 -0.0028
vn -0.9712 0.2382 0.0010
vn 0.5592 -0.8290 -0.0034
vn -0.3249 -0.9457 -0.0039
vn 0.8454 0.5341 0.0022
vn 0.7216 -0.6923 -0.0029
vn -0.0128 0.9999 0.0042
vn 0.8772 0.4802 0.0020
vn -0.9442 0.3295 0.0014
vn -0.0044 1.0000 0.0042
vn 0.0000 0.0015 -1.0000
vn 0.0000 -0.0015 1.0000
# 12 vertex normals

o Line003
g Line003
usemtl Varitas_polySurface2306_mso
s 1
f 57//39 58//39 59//39 
f 57//39 59//39 60//39 
s 4
f 58//40 61//40 62//40 
f 58//40 62//40 59//40 
s 2
f 61//41 63//41 64//41 
f 61//41 64//41 62//41 
s 4
f 63//42 65//42 66//42 
f 63//42 66//42 64//42 
s 2
f 65//43 67//43 68//43 
f 65//43 68//43 66//43 
s 4
f 67//44 69//44 70//44 
f 67//44 70//44 68//44 
s 2
f 69//45 71//45 72//45 
f 69//45 72//45 70//45 
s 4
f 71//46 73//46 74//46 
f 71//46 74//46 72//46 
s 2
f 73//47 75//47 76//47 
f 73//47 76//47 74//47 
s 4
f 75//48 57//48 60//48 
f 75//48 60//48 76//48 
s 16
f 63//49 67//49 65//49 
f 58//49 63//49 61//49 
f 67//49 71//49 69//49 
f 71//49 75//49 73//49 
f 75//49 58//49 57//49 
f 71//49 58//49 75//49 
f 71//49 63//49 58//49 
f 71//49 67//49 63//49 
f 64//50 66//50 68//50 
f 59//50 62//50 64//50 
f 68//50 70//50 72//50 
f 72//50 74//50 76//50 
f 76//50 60//50 59//50 
f 72//50 76//50 59//50 
f 72//50 59//50 64//50 
f 72//50 64//50 68//50 
# 36 faces

#
# object Line004
#

v  2.8647 53.0477 -8.6325
v  4.1292 51.6412 -8.6384
v  4.1292 51.6404 -8.0526
v  2.8647 53.0468 -8.0468
v  3.6722 49.7782 -8.6461
v  3.6722 49.7774 -8.0604
v  5.2711 50.8567 -8.6416
v  5.2711 50.8558 -8.0559
v  7.5538 50.0725 -8.6449
v  7.5538 50.0717 -8.0592
v  6.5133 51.7195 -8.6381
v  6.5133 51.7186 -8.0523
v  7.8087 53.0697 -8.6324
v  7.8087 53.0689 -8.0467
v  6.0260 53.0470 -8.6325
v  6.0260 53.0461 -8.0468
v  5.0626 54.8069 -8.6252
v  5.0626 54.8060 -8.0395
v  4.4511 53.0546 -8.6325
v  4.4511 53.0537 -8.0468
# 20 vertices

vn -0.7436 -0.6686 -0.0028
vn -0.9712 0.2382 0.0010
vn 0.5592 -0.8290 -0.0034
vn -0.3249 -0.9457 -0.0039
vn 0.8454 0.5341 0.0022
vn 0.7216 -0.6923 -0.0029
vn -0.0128 0.9999 0.0042
vn 0.8772 0.4802 0.0020
vn -0.9442 0.3295 0.0014
vn -0.0044 1.0000 0.0042
vn 0.0000 0.0015 -1.0000
vn 0.0000 -0.0015 1.0000
# 12 vertex normals

o Line004
g Line004
usemtl Varitas_polySurface2306_mso
s 1
f 77//51 78//51 79//51 
f 77//51 79//51 80//51 
s 4
f 78//52 81//52 82//52 
f 78//52 82//52 79//52 
s 2
f 81//53 83//53 84//53 
f 81//53 84//53 82//53 
s 4
f 83//54 85//54 86//54 
f 83//54 86//54 84//54 
s 2
f 85//55 87//55 88//55 
f 85//55 88//55 86//55 
s 4
f 87//56 89//56 90//56 
f 87//56 90//56 88//56 
s 2
f 89//57 91//57 92//57 
f 89//57 92//57 90//57 
s 4
f 91//58 93//58 94//58 
f 91//58 94//58 92//58 
s 2
f 93//59 95//59 96//59 
f 93//59 96//59 94//59 
s 4
f 95//60 77//60 80//60 
f 95//60 80//60 96//60 
s 16
f 83//61 87//61 85//61 
f 78//61 83//61 81//61 
f 87//61 91//61 89//61 
f 91//61 95//61 93//61 
f 95//61 78//61 77//61 
f 91//61 78//61 95//61 
f 91//61 83//61 78//61 
f 91//61 87//61 83//61 
f 84//62 86//62 88//62 
f 79//62 82//62 84//62 
f 88//62 90//62 92//62 
f 92//62 94//62 96//62 
f 96//62 80//62 79//62 
f 92//62 96//62 79//62 
f 92//62 79//62 84//62 
f 92//62 84//62 88//62 
# 36 faces

#
# object Line005
#

v  9.2058 53.0477 -8.6325
v  10.4704 51.6412 -8.6384
v  10.4704 51.6404 -8.0526
v  9.2058 53.0468 -8.0468
v  10.0134 49.7782 -8.6461
v  10.0134 49.7774 -8.0604
v  11.6122 50.8567 -8.6416
v  11.6122 50.8558 -8.0559
v  13.8950 50.0725 -8.6449
v  13.8950 50.0717 -8.0592
v  12.8545 51.7195 -8.6381
v  12.8545 51.7186 -8.0523
v  14.1499 53.0697 -8.6324
v  14.1499 53.0689 -8.0467
v  12.3672 53.0470 -8.6325
v  12.3672 53.0461 -8.0468
v  11.4038 54.8069 -8.6252
v  11.4038 54.8060 -8.0395
v  10.7922 53.0546 -8.6325
v  10.7922 53.0537 -8.0468
# 20 vertices

vn -0.7436 -0.6686 -0.0028
vn -0.9712 0.2382 0.0010
vn 0.5592 -0.8290 -0.0034
vn -0.3249 -0.9457 -0.0039
vn 0.8454 0.5341 0.0022
vn 0.7216 -0.6923 -0.0029
vn -0.0128 0.9999 0.0042
vn 0.8772 0.4802 0.0020
vn -0.9442 0.3295 0.0014
vn -0.0044 1.0000 0.0042
vn 0.0000 0.0015 -1.0000
vn 0.0000 -0.0015 1.0000
# 12 vertex normals

o Line005
g Line005
usemtl Varitas_polySurface2306_mso
s 1
f 97//63 98//63 99//63 
f 97//63 99//63 100//63 
s 4
f 98//64 101//64 102//64 
f 98//64 102//64 99//64 
s 2
f 101//65 103//65 104//65 
f 101//65 104//65 102//65 
s 4
f 103//66 105//66 106//66 
f 103//66 106//66 104//66 
s 2
f 105//67 107//67 108//67 
f 105//67 108//67 106//67 
s 4
f 107//68 109//68 110//68 
f 107//68 110//68 108//68 
s 2
f 109//69 111//69 112//69 
f 109//69 112//69 110//69 
s 4
f 111//70 113//70 114//70 
f 111//70 114//70 112//70 
s 2
f 113//71 115//71 116//71 
f 113//71 116//71 114//71 
s 4
f 115//72 97//72 100//72 
f 115//72 100//72 116//72 
s 16
f 103//73 107//73 105//73 
f 98//73 103//73 101//73 
f 107//73 111//73 109//73 
f 111//73 115//73 113//73 
f 115//73 98//73 97//73 
f 111//73 98//73 115//73 
f 111//73 103//73 98//73 
f 111//73 107//73 103//73 
f 104//74 106//74 108//74 
f 99//74 102//74 104//74 
f 108//74 110//74 112//74 
f 112//74 114//74 116//74 
f 116//74 100//74 99//74 
f 112//74 116//74 99//74 
f 112//74 99//74 104//74 
f 112//74 104//74 108//74 
# 36 faces

